<?xml version="1.0" encoding="UTF-8"?>
<svg width="128pt" height="128pt" version="1.1" viewBox="0 0 128 128" xmlns="http://www.w3.org/2000/svg">
 <g>
  <path fill="white" d="m126 112c0-2.6016-1.6016-4.8008-4-5.6016v-11c0-1.1992-0.80078-2-2-2s-2 0.80078-2 2v10.602h-108v-92h6c1.1992 0 2-0.80078 2-2s-0.80078-2-2-2h-8c-1.1992 0-2-0.80078-2-2s0.80078-2 2-2h103.2c1.1992 0 2-0.80078 2-2s-0.80078-2-2-2h-103.2c-3.3984 0-6 2.6016-6 6 0 2.6016 1.6016 4.8008 4 5.6016v92.801c-2.3984 0.80078-4 3-4 5.6016 0 2.6016 1.6016 4.8008 4 5.6016v4.3945h-2c-1.1992 0-2 0.80078-2 2s0.80078 2 2 2h92c1.1992 0 2-0.80078 2-2s-0.80078-2-2-2h-76.801l2-4h6.8008c1.1992 0 2-0.80078 2-2s-0.80078-2-2-2h-20c-1.1992 0-2-0.80078-2-2s0.80078-2 2-2h112c1.1992 0 2 0.80078 2 2s-0.80078 2-2 2h-84c-1.1992 0-2 0.80078-2 2s0.80078 2 2 2h70.801l2 4h-4.8008c-1.1992 0-2 0.80078-2 2s0.80078 2 2 2h20c1.1992 0 2-0.80078 2-2s-0.80078-2-2-2h-2v-4.3984c2.3984-0.80078 4-3 4-5.6016zm-116 6h6.8008l-2 4h-4.8008zm108 4h-4.8008l-2-4h6.8008z"/>
  <path fill="white" d="m120 6c1.1992 0 2 0.80078 2 2s-0.80078 2-2 2h-96c-1.1992 0-2 0.80078-2 2s0.80078 2 2 2h94v74c0 1.1992 0.80078 2 2 2s2-0.80078 2-2v-74.398c2.3984-0.80078 4-3 4-5.6016 0-3.3984-2.6016-6-6-6-1.1992 0-2 0.80078-2 2s0.80078 2 2 2z"/>
  <path fill="white" d="m94 100c0 1.1992 0.80078 2 2 2h16c1.1992 0 2-0.80078 2-2v-80c0-1.1992-0.80078-2-2-2h-32c-1.1992 0-2 0.80078-2 2v80c0 1.1992 0.80078 2 2 2h8c1.1992 0 2-0.80078 2-2s-0.80078-2-2-2h-6v-76h28v76h-14c-1.1992 0-2 0.80078-2 2z"/>
  <path fill="white" d="m16 38c-1.1992 0-2 0.80078-2 2v60c0 1.1992 0.80078 2 2 2h32c1.1992 0 2-0.80078 2-2v-80c0-1.1992-0.80078-2-2-2h-32c-1.1992 0-2 0.80078-2 2v12c0 1.1992 0.80078 2 2 2s2-0.80078 2-2v-10h28v76h-28v-58c0-1-0.80078-2-2-2z"/>
  <path fill="white" d="m42 64v-12c0-1.1992-0.80078-2-2-2s-2 0.80078-2 2v12c0 1.1992 0.80078 2 2 2s2-0.80078 2-2z"/>
  <path fill="white" d="m86 52v12c0 1.1992 0.80078 2 2 2s2-0.80078 2-2v-12c0-1.1992-0.80078-2-2-2s-2 0.80078-2 2z"/>
  <path fill="white" d="m104 34c1.1992 0 2-0.80078 2-2v-4c0-1.1992-0.80078-2-2-2h-4c-1.1992 0-2 0.80078-2 2s0.80078 2 2 2h2v2c0 1.1992 0.80078 2 2 2z"/>
  <path fill="white" d="m22 92c0 1.1992 0.80078 2 2 2h4c1.1992 0 2-0.80078 2-2s-0.80078-2-2-2h-2v-2c0-1.1992-0.80078-2-2-2s-2 0.80078-2 2z"/>
  <path fill="white" d="m24 82c1.1992 0 2-0.80078 2-2v-4c0-1.1992-0.80078-2-2-2s-2 0.80078-2 2v4c0 1.1992 0.80078 2 2 2z"/>
  <path fill="white" d="m56 42.602c1.1992 0 2-0.80078 2-2v-4.6016c0-1.1992-0.80078-2-2-2s-2 0.80078-2 2v4.6016c0 1 0.80078 2 2 2z"/>
  <path fill="white" d="m54 100c0 1.1992 0.80078 2 2 2h16c1.1992 0 2-0.80078 2-2v-80c0-1.1992-0.80078-2-2-2h-16c-1.1992 0-2 0.80078-2 2v8c0 1.1992 0.80078 2 2 2s2-0.80078 2-2v-6h12v76h-12v-49.602c0-1.1992-0.80078-2-2-2s-2 0.80078-2 2z"/>
 </g>
</svg>
