<?xml version="1.0" encoding="UTF-8"?>
<svg width="512pt" height="512pt" version="1.1" viewBox="0 0 512 512" xmlns="http://www.w3.org/2000/svg">
  <rect width="100%" height="100%" fill="black"/>
 <g>
  <path fill="white" d="m504 448c0-10.398-6.3984-19.199-16-22.398v-44c0-4.8008-3.1992-8-8-8s-8 3.1992-8 8v42.398h-432v-368h24c4.8008 0 8-3.1992 8-8s-3.1992-8-8-8h-32c-4.8008 0-8-3.1992-8-8s3.1992-8 8-8h412.8c4.8008 0 8-3.1992 8-8s-3.1992-8-8-8h-412.8c-13.602 0-24 10.398-24 24 0 10.398 6.3984 19.199 16 22.398v371.2c-9.6016 3.1992-16 12-16 22.398 0 10.398 6.3984 19.199 16 22.398v17.605h-8c-4.8008 0-8 3.1992-8 8s3.1992 8 8 8h368c4.8008 0 8-3.1992 8-8s-3.1992-8-8-8h-307.2l8-16h27.199c4.8008 0 8-3.1992 8-8s-3.1992-8-8-8h-80c-4.8008 0-8-3.1992-8-8s3.1992-8 8-8h448c4.8008 0 8 3.1992 8 8s-3.1992 8-8 8h-336c-4.8008 0-8 3.1992-8 8s3.1992 8 8 8h283.2l8 16h-19.199c-4.8008 0-8 3.1992-8 8s3.1992 8 8 8h80c4.8008 0 8-3.1992 8-8s-3.1992-8-8-8h-8v-17.602c9.6016-3.1992 16-12 16-22.398zm-464 24h27.199l-8 16h-19.199zm432 16h-19.199l-8-16h27.199z"/>
  <path fill="white" d="m480 24c4.8008 0 8 3.1992 8 8s-3.1992 8-8 8h-384c-4.8008 0-8 3.1992-8 8s3.1992 8 8 8h376v296c0 4.8008 3.1992 8 8 8s8-3.1992 8-8v-297.6c9.6016-3.1992 16-12 16-22.398 0-13.602-10.398-24-24-24-4.8008 0-8 3.1992-8 8s3.1992 8 8 8z"/>
  <path fill="white" d="m376 400c0 4.8008 3.1992 8 8 8h64c4.8008 0 8-3.1992 8-8v-320c0-4.8008-3.1992-8-8-8h-128c-4.8008 0-8 3.1992-8 8v320c0 4.8008 3.1992 8 8 8h32c4.8008 0 8-3.1992 8-8s-3.1992-8-8-8h-24v-304h112v304h-56c-4.8008 0-8 3.1992-8 8z"/>
  <path fill="white" d="m64 152c-4.8008 0-8 3.1992-8 8v240c0 4.8008 3.1992 8 8 8h128c4.8008 0 8-3.1992 8-8v-320c0-4.8008-3.1992-8-8-8h-128c-4.8008 0-8 3.1992-8 8v48c0 4.8008 3.1992 8 8 8s8-3.1992 8-8v-40h112v304h-112v-232c0-4-3.1992-8-8-8z"/>
  <path fill="white" d="m168 256v-48c0-4.8008-3.1992-8-8-8s-8 3.1992-8 8v48c0 4.8008 3.1992 8 8 8s8-3.1992 8-8z"/>
  <path fill="white" d="m344 208v48c0 4.8008 3.1992 8 8 8s8-3.1992 8-8v-48c0-4.8008-3.1992-8-8-8s-8 3.1992-8 8z"/>
  <path fill="white" d="m416 136c4.8008 0 8-3.1992 8-8v-16c0-4.8008-3.1992-8-8-8h-16c-4.8008 0-8 3.1992-8 8s3.1992 8 8 8h8v8c0 4.8008 3.1992 8 8 8z"/>
  <path fill="white" d="m88 368c0 4.8008 3.1992 8 8 8h16c4.8008 0 8-3.1992 8-8s-3.1992-8-8-8h-8v-8c0-4.8008-3.1992-8-8-8s-8 3.1992-8 8z"/>
  <path fill="white" d="m96 328c4.8008 0 8-3.1992 8-8v-16c0-4.8008-3.1992-8-8-8s-8 3.1992-8 8v16c0 4.8008 3.1992 8 8 8z"/>
  <path fill="white" d="m224 170.4c4.8008 0 8-3.1992 8-8v-18.398c0-4.8008-3.1992-8-8-8s-8 3.1992-8 8v18.398c0 4 3.1992 8 8 8z"/>
  <path fill="white" d="m216 400c0 4.8008 3.1992 8 8 8h64c4.8008 0 8-3.1992 8-8v-320c0-4.8008-3.1992-8-8-8h-64c-4.8008 0-8 3.1992-8 8v32c0 4.8008 3.1992 8 8 8s8-3.1992 8-8v-24h48v304h-48v-198.4c0-4.8008-3.1992-8-8-8s-8 3.1992-8 8z"/>
 </g>
</svg>
