<?xml version="1.0" encoding="UTF-8"?>
<svg width="1200pt" height="1200pt" version="1.1" viewBox="0 0 1200 1200" xmlns="http://www.w3.org/2000/svg">
 <g>
  <path fill="black" d="m1181.2 1050c0-24.375-15-45-37.5-52.5v-103.12c0-11.25-7.5-18.75-18.75-18.75s-18.75 7.5-18.75 18.75v99.375h-1012.5v-862.5h56.25c11.25 0 18.75-7.5 18.75-18.75s-7.5-18.75-18.75-18.75h-75c-11.25 0-18.75-7.5-18.75-18.75s7.5-18.75 18.75-18.75h967.5c11.25 0 18.75-7.5 18.75-18.75s-7.5-18.75-18.75-18.75h-967.5c-31.875 0-56.25 24.375-56.25 56.25 0 24.375 15 45 37.5 52.5v870c-22.5 7.5-37.5 28.125-37.5 52.5s15 45 37.5 52.5v41.25h-18.75c-11.25 0-18.75 7.5-18.75 18.75s7.5 18.75 18.75 18.75h862.5c11.25 0 18.75-7.5 18.75-18.75s-7.5-18.75-18.75-18.75h-720l18.75-37.5h63.75c11.25 0 18.75-7.5 18.75-18.75s-7.5-18.75-18.75-18.75h-187.5c-11.25 0-18.75-7.5-18.75-18.75s7.5-18.75 18.75-18.75h1050c11.25 0 18.75 7.5 18.75 18.75s-7.5 18.75-18.75 18.75h-787.5c-11.25 0-18.75 7.5-18.75 18.75s7.5 18.75 18.75 18.75h663.75l18.75 37.5h-45c-11.25 0-18.75 7.5-18.75 18.75s7.5 18.75 18.75 18.75h187.5c11.25 0 18.75-7.5 18.75-18.75s-7.5-18.75-18.75-18.75h-18.75v-41.25c22.5-7.5 37.5-28.125 37.5-52.5zm-1087.5 56.25h63.75l-18.75 37.5h-45zm1012.5 37.5h-45l-18.75-37.5h63.75z"/>
  <path fill="black" d="m1125 56.25c11.25 0 18.75 7.5 18.75 18.75s-7.5 18.75-18.75 18.75h-900c-11.25 0-18.75 7.5-18.75 18.75s7.5 18.75 18.75 18.75h881.25v693.75c0 11.25 7.5 18.75 18.75 18.75s18.75-7.5 18.75-18.75v-697.5c22.5-7.5 37.5-28.125 37.5-52.5 0-31.875-24.375-56.25-56.25-56.25-11.25 0-18.75 7.5-18.75 18.75s7.5 18.75 18.75 18.75z"/>
  <path fill="black" d="m881.25 937.5c0 11.25 7.5 18.75 18.75 18.75h150c11.25 0 18.75-7.5 18.75-18.75v-750c0-11.25-7.5-18.75-18.75-18.75h-300c-11.25 0-18.75 7.5-18.75 18.75v750c0 11.25 7.5 18.75 18.75 18.75h75c11.25 0 18.75-7.5 18.75-18.75s-7.5-18.75-18.75-18.75h-56.25v-712.5h262.5v712.5h-131.25c-11.25 0-18.75 7.5-18.75 18.75z"/>
  <path fill="black" d="m150 356.25c-11.25 0-18.75 7.5-18.75 18.75v562.5c0 11.25 7.5 18.75 18.75 18.75h300c11.25 0 18.75-7.5 18.75-18.75v-750c0-11.25-7.5-18.75-18.75-18.75h-300c-11.25 0-18.75 7.5-18.75 18.75v112.5c0 11.25 7.5 18.75 18.75 18.75s18.75-7.5 18.75-18.75v-93.75h262.5v712.5h-262.5v-543.75c0-9.375-7.5-18.75-18.75-18.75z"/>
  <path fill="black" d="m393.75 600v-112.5c0-11.25-7.5-18.75-18.75-18.75s-18.75 7.5-18.75 18.75v112.5c0 11.25 7.5 18.75 18.75 18.75s18.75-7.5 18.75-18.75z"/>
  <path fill="black" d="m806.25 487.5v112.5c0 11.25 7.5 18.75 18.75 18.75s18.75-7.5 18.75-18.75v-112.5c0-11.25-7.5-18.75-18.75-18.75s-18.75 7.5-18.75 18.75z"/>
  <path fill="black" d="m975 318.75c11.25 0 18.75-7.5 18.75-18.75v-37.5c0-11.25-7.5-18.75-18.75-18.75h-37.5c-11.25 0-18.75 7.5-18.75 18.75s7.5 18.75 18.75 18.75h18.75v18.75c0 11.25 7.5 18.75 18.75 18.75z"/>
  <path fill="black" d="m206.25 862.5c0 11.25 7.5 18.75 18.75 18.75h37.5c11.25 0 18.75-7.5 18.75-18.75s-7.5-18.75-18.75-18.75h-18.75v-18.75c0-11.25-7.5-18.75-18.75-18.75s-18.75 7.5-18.75 18.75z"/>
  <path fill="black" d="m225 768.75c11.25 0 18.75-7.5 18.75-18.75v-37.5c0-11.25-7.5-18.75-18.75-18.75s-18.75 7.5-18.75 18.75v37.5c0 11.25 7.5 18.75 18.75 18.75z"/>
  <path fill="black" d="m525 399.38c11.25 0 18.75-7.5 18.75-18.75v-43.125c0-11.25-7.5-18.75-18.75-18.75s-18.75 7.5-18.75 18.75v43.125c0 9.375 7.5 18.75 18.75 18.75z"/>
  <path fill="black" d="m506.25 937.5c0 11.25 7.5 18.75 18.75 18.75h150c11.25 0 18.75-7.5 18.75-18.75v-750c0-11.25-7.5-18.75-18.75-18.75h-150c-11.25 0-18.75 7.5-18.75 18.75v75c0 11.25 7.5 18.75 18.75 18.75s18.75-7.5 18.75-18.75v-56.25h112.5v712.5h-112.5v-465c0-11.25-7.5-18.75-18.75-18.75s-18.75 7.5-18.75 18.75z"/>
 </g>
</svg>
