<?xml version="1.0" encoding="UTF-8"?>
<svg width="128pt" height="128pt" version="1.1" viewBox="0 0 128 128" xmlns="http://www.w3.org/2000/svg">
  <rect width="100%" height="100%" fill="black"/>
 <g>
  <path fill="white" d="m64 51.613c-6.832 0-12.387 5.5586-12.387 12.387 0 6.832 5.5586 12.387 12.387 12.387 6.832 0 12.387-5.5586 12.387-12.387 0-6.832-5.5547-12.387-12.387-12.387zm0 20.645c-4.5547 0-8.2578-3.7031-8.2578-8.2578s3.7031-8.2578 8.2578-8.2578 8.2578 3.7031 8.2578 8.2578-3.7031 8.2578-8.2578 8.2578z"/>
  <path fill="white" d="m109.42 45.418c-1.8242 0-3.9414 0.28906-6.1953 0.80469l0.003906-21.449c0-4.6523-7.1484-7.0898-14.453-7.9141v-1.0859c4.9648-1.2773 8.2578-4.0898 8.2578-7.5156 0-4.707-6.2148-8.2578-14.453-8.2578s-14.453 3.5508-14.453 8.2578c0 3.4258 3.293 6.2383 8.2578 7.5156v1.0859c-4.9062 0.55469-9.7422 1.8398-12.387 4.0312-2.6445-2.1953-7.4805-3.4766-12.387-4.0312l0.003906-1.0859c4.9648-1.2773 8.2578-4.0898 8.2578-7.5156 0-4.707-6.2148-8.2578-14.453-8.2578s-14.453 3.5508-14.453 8.2578c0 3.4258 3.293 6.2383 8.2578 7.5156v1.0859c-7.2969 0.82812-14.449 3.2617-14.449 7.9141v21.477c-2.3203-0.53516-4.4492-0.83203-6.1914-0.83203-10.633 0-18.582 9.8086-18.582 18.582 0 8.7695 7.9453 18.582 18.582 18.582 1.8242 0 3.9414-0.28906 6.1953-0.80469l-0.003906 29.707c0 2.4102 1.9297 4.2617 4.9102 5.5938-0.60547 0.98047-0.78125 1.9141-0.78125 2.6641 0 1.4648 0.71094 4.2305 5.4844 6.2773 2.9805 1.2773 6.8984 1.9805 11.031 1.9805 4.1328 0 8.0508-0.70312 11.031-1.9805 4.7734-2.0469 5.4844-4.8125 5.4844-6.2773 0-0.74609-0.17969-1.6797-0.78125-2.6641 1.1094-0.49609 2.0742-1.0664 2.8477-1.707 0.77344 0.64062 1.7383 1.2109 2.8477 1.707-0.60547 0.98047-0.78125 1.9141-0.78125 2.6641 0 1.4648 0.71094 4.2305 5.4844 6.2773 2.9766 1.2773 6.8945 1.9805 11.031 1.9805 4.1328 0 8.0508-0.70312 11.031-1.9805 4.7695-2.0469 5.4844-4.8125 5.4844-6.2773 0-0.74609-0.17969-1.6797-0.78125-2.6641 2.9805-1.332 4.9102-3.1836 4.9102-5.5938v-29.734c2.3203 0.53516 4.4492 0.83203 6.1953 0.83203 10.633 0 18.582-9.8086 18.582-18.582-0.003906-8.7695-7.9492-18.582-18.586-18.582zm-23.094 24.055c-0.10938-0.38281-0.23438-0.76172-0.38672-1.1328 1.9258-1.9453 2.9844-4.5195 2.9844-7.2578 0-1.3672-0.26562-2.6953-0.76953-3.9219 3.1562-2.1758 7.1211-4.0547 10.945-5.4023v24.504c-4.625-1.625-9.4297-4.0312-12.773-6.7891zm-4.7109-0.53516c0.63281 0.99219 0.96484 2.1406 0.96484 3.3203 0 3.4141-2.7773 6.1953-6.1953 6.1953-0.34766 0-0.70312-0.03125-1.0586-0.09375l-1.9375-0.33203-0.42578 1.9219c-0.25391 1.1484-0.83203 2.1953-1.6641 3.0312-2.4141 2.4141-6.3438 2.4141-8.7578 0-0.24609-0.24609-0.47656-0.51953-0.68359-0.8125l-1.1367-1.6055-1.6602 1.0586c-0.98828 0.625-2.1367 0.96094-3.3164 0.96094-3.4141 0-6.1953-2.7773-6.1953-6.1953 0-0.34766 0.03125-0.70312 0.09375-1.0586l0.33203-1.9414-1.9219-0.42578c-1.1484-0.25391-2.1953-0.83203-3.0312-1.6641-1.168-1.168-1.8125-2.7266-1.8125-4.3789 0-1.6523 0.64453-3.2109 1.8125-4.3789 0.24609-0.24609 0.51953-0.47266 0.8125-0.68359l1.6055-1.1367-1.0586-1.6602c-0.625-0.98828-0.96094-2.1367-0.96094-3.3164 0-3.4141 2.7773-6.1953 6.1953-6.1953 0.34766 0 0.70312 0.03125 1.0586 0.09375l1.9375 0.33203 0.42578-1.9219c0.25391-1.1484 0.83203-2.1992 1.6641-3.0312 1.168-1.168 2.7266-1.8125 4.3789-1.8125 1.6562 0 3.2109 0.64453 4.3789 1.8125 0.24609 0.24609 0.47266 0.51953 0.68359 0.8125l1.1367 1.6055 1.6602-1.0586c0.99219-0.63281 2.1406-0.96484 3.3203-0.96484 3.4141 0 6.1953 2.7773 6.1953 6.1953 0 0.34766-0.03125 0.70312-0.09375 1.0586l-0.33203 1.9375 1.9219 0.42578c1.1484 0.25391 2.1992 0.83203 3.0312 1.6641 1.168 1.168 1.8125 2.7266 1.8125 4.3789 0 1.6562-0.64453 3.2109-1.8125 4.3789-0.24609 0.24609-0.51953 0.47656-0.8125 0.68359l-1.6055 1.1367zm-30.738 16.551c1.4492 0.77734 3.1094 1.2227 4.8672 1.2227 1.3516 0 2.6797-0.26563 3.918-0.77344 0.47656 0.47266 0.98828 0.88281 1.5234 1.2422-1.9492 5.7891-7.4844 9.8516-13.699 9.8516h-6.043c0.76562-5.2422 4.3984-9.7422 9.4336-11.543zm17.738 3.2852h3.6445c7.2695 0 13.301 5.3945 14.305 12.387h-6.0469c-7.2266 0-13.234-5.332-14.285-12.27 0.23047 0.015625 0.46094 0.027344 0.69141 0.027344 0.56641 0 1.1328-0.050781 1.6914-0.14453zm-26.938-30.246c0.10938 0.38281 0.23438 0.76172 0.38672 1.1328-1.9258 1.9453-2.9844 4.5195-2.9844 7.2578 0 1.3672 0.26562 2.6953 0.76953 3.9219-3.1562 2.1758-7.1211 4.0547-10.945 5.4023v-24.504c4.625 1.625 9.4297 4.0312 12.773 6.7891zm44.172-4.793c-0.94531-0.93359-2.0547-1.6719-3.2656-2.1758-0.03125-5.668-4.6523-10.27-10.324-10.27-1.3516 0-2.6797 0.26563-3.918 0.77344-0.6875-0.67969-1.4531-1.2461-2.2734-1.7031v-10.367c4.0234 2.0664 10.41 3.0391 16.516 3.0391 6.1016 0 12.492-0.97266 16.516-3.0391v17.379c-4.6836 1.5234-9.5195 3.8008-13.25 6.3633zm-13.59-45.477c0-1.6836 4.0195-4.1289 10.324-4.1289 6.3008 0 10.324 2.4453 10.324 4.1289 0 1.6836-4.0195 4.1289-10.324 4.1289-6.3008 0-10.324-2.4453-10.324-4.1289zm10.324 8.2578c0.70312 0 1.3906-0.027344 2.0664-0.078125l-0.003907 4.207h-4.1289v-4.207c0.67188 0.050781 1.3594 0.078125 2.0664 0.078125zm-13.672 6.2773c1.9492-0.80469 4.5586-1.418 7.4961-1.7812 0.1875 2.1055 1.957 3.7617 4.1094 3.7617h4.1289c2.1523 0 3.9219-1.6562 4.1094-3.7617 2.9375 0.35938 5.5469 0.97656 7.4961 1.7812 2.3516 0.96875 2.8477 1.8477 2.8477 1.9805 0 0.17578-0.69922 1.3125-4.0312 2.4219-3.3047 1.1016-7.7383 1.707-12.484 1.707-4.7461 0-9.1797-0.60547-12.484-1.707-3.332-1.1094-4.0312-2.2422-4.0312-2.4219 0-0.13281 0.49219-1.0117 2.8438-1.9805zm-33.812-14.535c0-1.6836 4.0195-4.1289 10.324-4.1289 6.3008 0 10.324 2.4453 10.324 4.1289 0 1.6836-4.0195 4.1289-10.324 4.1289s-10.324-2.4453-10.324-4.1289zm10.32 8.2578c0.70312 0 1.3906-0.027344 2.0664-0.078125v4.207h-4.1289v-4.207c0.67188 0.050781 1.3594 0.078125 2.0625 0.078125zm-13.668 6.2773c1.9492-0.80469 4.5586-1.418 7.4961-1.7812 0.18359 2.1055 1.957 3.7617 4.1094 3.7617h4.1289c2.1523 0 3.9219-1.6562 4.1094-3.7617 2.9375 0.35938 5.5469 0.97656 7.4961 1.7812 2.3516 0.96875 2.8438 1.8477 2.8438 1.9805 0 0.17578-0.69922 1.3125-4.0312 2.4219-3.3008 1.1016-7.7344 1.707-12.484 1.707-4.7461 0-9.1797-0.60547-12.484-1.707-3.3281-1.1094-4.0312-2.2422-4.0312-2.4219 0-0.13281 0.49609-1.0117 2.8477-1.9805zm-2.8477 7.1992c4.0273 2.0664 10.414 3.0391 16.516 3.0391 6.1016 0 12.492-0.97266 16.516-3.0391v9.1211c-0.28125-0.023437-0.56641-0.039062-0.85547-0.039062-2.7578 0-5.3477 1.0742-7.3008 3.0234-0.95703 0.95703-1.7109 2.082-2.2227 3.3164-4.8398 0.027344-8.9023 3.4023-9.9805 7.9219-3.7383-2.4648-8.3203-4.5391-12.672-5.9414zm-10.32 48.461c-8.1406 0-14.453-7.7695-14.453-14.453s6.3125-14.453 14.453-14.453c1.6914 0 3.8438 0.33203 6.1953 0.93359v27.023c-2.375 0.60938-4.5312 0.94922-6.1953 0.94922zm39.223 41.289c0 1.457-4.7031 4.1289-12.387 4.1289-7.6836 0-12.387-2.6719-12.387-4.1289 0-0.35156 0.32422-0.80469 0.875-1.2617 3.4766 0.85156 7.5547 1.2617 11.512 1.2617s8.0352-0.41016 11.512-1.2617c0.55078 0.45703 0.875 0.91016 0.875 1.2617zm0.10156-5.8359c-3.3047 1.1016-7.7383 1.707-12.488 1.707-4.7461 0-9.1797-0.60547-12.484-1.707-3.3281-1.1133-4.0312-2.2461-4.0312-2.4219v-30.859c4.6836-1.5195 9.5195-3.8008 13.25-6.3594 0.94531 0.93359 2.0547 1.6719 3.2656 2.1758 0.011719 2.2578 0.75391 4.3477 2 6.043-6.168 3.1094-10.258 9.5352-10.258 16.613v2.0664h10.324c4.2539 0 8.4141-1.4766 11.711-4.1523 1.0117-0.82031 1.9297-1.7461 2.7422-2.7539l-0.003906 17.227c0 0.17578-0.69922 1.3086-4.0273 2.4219zm37.062 5.8359c0 1.457-4.7031 4.1289-12.387 4.1289-7.6836 0-12.387-2.6719-12.387-4.1289 0-0.35156 0.32422-0.80469 0.875-1.2617 3.4766 0.85156 7.5508 1.2617 11.512 1.2617 3.957 0 8.0352-0.41016 11.512-1.2617 0.55078 0.45703 0.875 0.91016 0.875 1.2617zm4.1289-8.2578c0 0.17578-0.69922 1.3125-4.0312 2.4219-3.3047 1.1016-7.7383 1.707-12.484 1.707-4.7461 0-9.1797-0.60547-12.484-1.707-3.332-1.1133-4.0312-2.2461-4.0312-2.4219v-13.113c3.4062 4.2148 8.6172 6.918 14.449 6.918h10.324v-2.0664c0-9.2734-6.8281-16.98-15.719-18.359 0.53906-0.70312 0.98438-1.4688 1.3242-2.2852 4.8398-0.027344 8.9023-3.4023 9.9805-7.9219 3.7383 2.4648 8.3203 4.5391 12.672 5.9414zm10.32-33.031c-1.6914 0-3.8438-0.33203-6.1953-0.93359l0.003906-27.023c2.3711-0.60938 4.5273-0.94922 6.1953-0.94922 8.1406 0 14.453 7.7695 14.453 14.453-0.003906 6.6836-6.3164 14.453-14.457 14.453z"/>
 </g>
</svg>
