<?xml version="1.0" encoding="UTF-8"?>
<svg width="512pt" height="512pt" version="1.1" viewBox="0 0 512 512" xmlns="http://www.w3.org/2000/svg">
  <rect width="100%" height="100%" fill="white"/>
  <g>
  <path fill="black" d="m256 206.45c-27.32 0-49.547 22.227-49.547 49.547s22.227 49.547 49.547 49.547 49.547-22.227 49.547-49.547-22.227-49.547-49.547-49.547zm0 82.578c-18.215 0-33.031-14.816-33.031-33.031s14.816-33.031 33.031-33.031 33.031 14.816 33.031 33.031-14.816 33.031-33.031 33.031z"/>
  <path fill="black" d="m437.68 181.68c-7.2891 0-15.766 1.1602-24.773 3.2188v-85.797c0-18.605-28.602-28.355-57.805-31.66v-4.3477c19.867-5.1133 33.031-16.355 33.031-30.059 0-18.832-24.852-33.031-57.805-33.031s-57.805 14.199-57.805 33.031c0 13.703 13.168 24.949 33.031 30.059v4.3438c-19.625 2.2227-38.965 7.3594-49.547 16.133-10.582-8.7734-29.922-13.91-49.547-16.133l-0.003906-4.3438c19.867-5.1133 33.031-16.355 33.031-30.059 0-18.832-24.852-33.031-57.805-33.031-32.953 0-57.805 14.199-57.805 33.031 0 13.703 13.168 24.949 33.031 30.059v4.3438c-29.211 3.3086-57.809 13.059-57.809 31.664v85.902c-9.2773-2.1445-17.805-3.3242-24.773-3.3242-42.539 0-74.324 39.238-74.324 74.324 0 35.082 31.785 74.324 74.324 74.324 7.2891 0 15.766-1.1602 24.773-3.2188v118.83c0 9.6367 7.7188 17.043 19.645 22.379-2.4141 3.9297-3.1289 7.6641-3.1289 10.652 0 5.8672 2.8516 16.93 21.934 25.109 11.926 5.1094 27.598 7.9258 44.129 7.9258 16.535 0 32.207-2.8164 44.129-7.9219 19.086-8.1836 21.938-19.242 21.938-25.109 0-2.9922-0.71094-6.7266-3.1289-10.652 4.4375-1.9844 8.293-4.2578 11.387-6.8242 3.0898 2.5664 6.9492 4.8398 11.387 6.8242-2.4141 3.9297-3.1289 7.6641-3.1289 10.652 0 5.8672 2.8516 16.93 21.934 25.109 11.926 5.1055 27.598 7.9219 44.133 7.9219 16.535 0 32.207-2.8164 44.129-7.9219 19.082-8.1836 21.934-19.242 21.934-25.109 0-2.9922-0.71094-6.7266-3.1289-10.652 11.926-5.3398 19.645-12.746 19.645-22.383v-118.93c9.2773 2.1445 17.805 3.3242 24.773 3.3242 42.539 0 74.324-39.238 74.324-74.324 0-35.082-31.785-74.324-74.324-74.324zm-92.379 96.211c-0.42969-1.5352-0.94141-3.0508-1.5469-4.5312 7.6992-7.7812 11.934-18.082 11.934-29.035 0-5.4727-1.0586-10.777-3.0781-15.691 12.621-8.7031 28.48-16.219 43.781-21.602v98.023c-18.496-6.5039-37.719-16.125-51.09-27.164zm-18.84-2.1328c2.5273 3.9727 3.8672 8.5625 3.8672 13.277 0 13.66-11.113 24.773-24.773 24.773-1.3867 0-2.8125-0.125-4.2383-0.36719l-7.7539-1.332-1.7031 7.6836c-1.0195 4.5938-3.3203 8.7891-6.6562 12.121-9.6602 9.6602-25.379 9.6602-35.035 0-0.98047-0.98047-1.8984-2.0742-2.7344-3.2578l-4.543-6.4258-6.6367 4.2266c-3.9727 2.5312-8.5664 3.8711-13.281 3.8711-13.66 0-24.773-11.113-24.773-24.773 0-1.3867 0.125-2.8086 0.36719-4.2344l1.332-7.7578-7.6836-1.7031c-4.5977-1.0195-8.7891-3.3203-12.125-6.6562-4.6797-4.6797-7.2539-10.902-7.2539-17.52 0-6.6172 2.5781-12.84 7.2578-17.52 0.98047-0.98047 2.0742-1.8984 3.2539-2.7305l6.4258-4.543-4.2266-6.6367c-2.5273-3.9727-3.8672-8.5664-3.8672-13.281 0-13.66 11.113-24.773 24.773-24.773 1.3867 0 2.8086 0.125 4.2344 0.36719l7.7578 1.332 1.7031-7.6836c1.0195-4.5977 3.3203-8.7891 6.6562-12.125 4.6797-4.6797 10.902-7.2539 17.52-7.2539 6.6172 0 12.84 2.5781 17.52 7.2578 0.98047 0.98047 1.8984 2.0742 2.7305 3.2539l4.543 6.4297 6.6406-4.2266c3.9727-2.5273 8.5625-3.8672 13.277-3.8672 13.66 0 24.773 11.113 24.773 24.773 0 1.3867-0.125 2.8086-0.36719 4.2344l-1.332 7.7578 7.6836 1.7031c4.5977 1.0195 8.7891 3.3203 12.125 6.6562 4.6797 4.6797 7.2539 10.902 7.2539 17.52 0 6.6172-2.5781 12.84-7.2539 17.516-0.98047 0.98047-2.0742 1.8984-3.2539 2.7305l-6.4297 4.543zm-122.96 66.195c5.8047 3.1172 12.434 4.8906 19.473 4.8906 5.4102 0 10.727-1.0547 15.672-3.0898 1.9023 1.8828 3.9492 3.5352 6.0977 4.9688-7.8008 23.156-29.945 39.41-54.805 39.41h-24.176c3.0664-20.969 17.605-38.969 37.738-46.18zm70.961 13.148h14.574c29.07 0 53.199 21.57 57.219 49.547h-24.184c-28.91 0-52.93-21.332-57.148-49.082 0.91797 0.0625 1.8398 0.10156 2.7617 0.10156 2.2656 0 4.5352-0.19531 6.7773-0.56641zm-107.75-120.98c0.42969 1.5352 0.94141 3.0508 1.5469 4.5273-7.6992 7.7812-11.934 18.082-11.934 29.035 0 5.4727 1.0586 10.777 3.0781 15.691-12.621 8.7031-28.48 16.219-43.781 21.602v-98.023c18.496 6.5078 37.719 16.129 51.09 27.168zm176.69-19.18c-3.7852-3.7344-8.2148-6.6836-13.066-8.707-0.125-22.664-18.602-41.066-41.293-41.066-5.4141 0-10.727 1.0547-15.676 3.0898-2.7461-2.7148-5.8086-4.9922-9.0977-6.8125v-41.465c16.098 8.2578 41.652 12.156 66.066 12.156 24.414 0 49.965-3.8984 66.066-12.152v69.516c-18.742 6.0859-38.082 15.199-53 25.441zm-54.359-181.9c0-6.7344 16.086-16.516 41.289-16.516 25.203 0 41.289 9.7812 41.289 16.516s-16.086 16.516-41.289 16.516c-25.203 0-41.289-9.7812-41.289-16.516zm41.293 33.035c2.8164 0 5.5703-0.11328 8.2578-0.3125v16.828h-16.516v-16.832c2.6875 0.20312 5.4375 0.31641 8.2578 0.31641zm-54.684 25.105c7.7969-3.2109 18.23-5.6758 29.984-7.1211 0.74609 8.4219 7.8281 15.047 16.441 15.047h16.516c8.6094 0 15.695-6.625 16.441-15.047 11.75 1.4453 22.188 3.9062 29.984 7.1211 9.4023 3.8789 11.379 7.3945 11.379 7.9258 0 0.71094-2.8008 5.2422-16.121 9.6836-13.219 4.4062-30.953 6.832-49.941 6.832s-36.727-2.4258-49.941-6.832c-13.32-4.4414-16.125-8.9766-16.125-9.6836 0-0.53125 1.9805-4.0469 11.383-7.9258zm-135.25-58.141c0-6.7344 16.086-16.516 41.289-16.516s41.289 9.7812 41.289 16.516-16.086 16.516-41.289 16.516-41.289-9.7812-41.289-16.516zm41.289 33.035c2.8164 0 5.5703-0.11328 8.2578-0.3125v16.828h-16.516v-16.832c2.6875 0.20312 5.4414 0.31641 8.2578 0.31641zm-54.68 25.105c7.7969-3.2109 18.23-5.6758 29.984-7.1211 0.74609 8.4219 7.8281 15.047 16.438 15.047h16.516c8.6094 0 15.695-6.625 16.441-15.047 11.75 1.4453 22.188 3.9102 29.984 7.1211 9.4023 3.8789 11.383 7.3945 11.383 7.9258 0 0.71094-2.8008 5.2422-16.121 9.6836-13.219 4.4062-30.957 6.832-49.945 6.832s-36.727-2.4258-49.941-6.832c-13.32-4.4414-16.121-8.9766-16.121-9.6836 0-0.53125 1.9766-4.0469 11.383-7.9258zm-11.383 28.805c16.098 8.2539 41.648 12.152 66.062 12.152 24.414 0 49.965-3.8984 66.066-12.152v36.492c-1.1328-0.09375-2.2734-0.14844-3.4219-0.14844-11.027 0-21.398 4.2969-29.195 12.094-3.8281 3.8281-6.8359 8.332-8.8984 13.27-19.363 0.10547-35.602 13.609-39.926 31.688-14.945-9.8633-33.277-18.152-50.688-23.773zm-41.289 193.83c-32.555 0-57.805-31.074-57.805-57.805s25.25-57.805 57.805-57.805c6.7656 0 15.371 1.3359 24.773 3.7305v108.09c-9.4883 2.4258-18.117 3.7852-24.773 3.7852zm156.9 165.16c0 5.8242-18.812 16.516-49.547 16.516-30.738 0-49.547-10.691-49.547-16.516 0-1.4062 1.2969-3.2266 3.5078-5.043 13.895 3.4023 30.207 5.043 46.035 5.043 15.832 0 32.141-1.6406 46.043-5.043 2.2109 1.8164 3.5078 3.6367 3.5078 5.043zm0.39453-23.352c-13.219 4.4062-30.957 6.8359-49.945 6.8359s-36.727-2.4258-49.941-6.832c-13.32-4.4414-16.121-8.9766-16.121-9.6875v-123.43c18.738-6.0859 38.078-15.199 52.996-25.441 3.7852 3.7344 8.2148 6.6836 13.066 8.707 0.046875 9.0352 3.0195 17.387 8.0078 24.172-24.688 12.434-41.039 38.129-41.039 66.441v8.2578h41.289c17.02 0 33.656-5.9023 46.84-16.613 4.0469-3.2891 7.7188-6.9844 10.965-11.008l0.003907 68.91c0 0.71094-2.8047 5.2461-16.121 9.6836zm148.25 23.352c0 5.8242-18.812 16.516-49.547 16.516-30.738 0-49.547-10.691-49.547-16.516 0-1.4062 1.2969-3.2266 3.5078-5.043 13.898 3.4023 30.207 5.043 46.039 5.043s32.141-1.6406 46.043-5.043c2.207 1.8164 3.5039 3.6367 3.5039 5.043zm16.516-33.035c0 0.71094-2.8008 5.2422-16.121 9.6836-13.219 4.4062-30.953 6.8359-49.941 6.8359s-36.727-2.4258-49.941-6.832c-13.32-4.4414-16.125-8.9766-16.125-9.6875v-52.453c13.637 16.867 34.477 27.68 57.809 27.68h41.289v-8.2578c0-37.09-27.312-67.918-62.879-73.441 2.1523-2.8125 3.9375-5.8789 5.2969-9.1406 19.363-0.10156 35.602-13.605 39.926-31.688 14.945 9.8633 33.277 18.152 50.688 23.773zm41.289-132.13c-6.7656 0-15.371-1.3359-24.773-3.7305v-108.09c9.4883-2.4336 18.117-3.793 24.773-3.793 32.555 0 57.805 31.074 57.805 57.805 0.003906 26.73-25.246 57.805-57.805 57.805z"/>
 </g>
</svg>
