<svg aria-roledescription="er" role="graphics-document document" viewBox="0 0 451.0382080078125 419" style="max-width: 451.038px; background-color: transparent;" xmlns:xlink="http://www.w3.org/1999/xlink" xmlns="http://www.w3.org/2000/svg" width="100%" id="my-svg"><style>#my-svg{font-family:"trebuchet ms",verdana,arial,sans-serif;font-size:16px;fill:#000000;}#my-svg .error-icon{fill:#552222;}#my-svg .error-text{fill:#552222;stroke:#552222;}#my-svg .edge-thickness-normal{stroke-width:2px;}#my-svg .edge-thickness-thick{stroke-width:3.5px;}#my-svg .edge-pattern-solid{stroke-dasharray:0;}#my-svg .edge-pattern-dashed{stroke-dasharray:3;}#my-svg .edge-pattern-dotted{stroke-dasharray:2;}#my-svg .marker{fill:#666;stroke:#666;}#my-svg .marker.cross{stroke:#666;}#my-svg svg{font-family:"trebuchet ms",verdana,arial,sans-serif;font-size:16px;}#my-svg .entityBox{fill:#eee;stroke:#999;}#my-svg .attributeBoxOdd{fill:#ffffff;stroke:#999;}#my-svg .attributeBoxEven{fill:#f2f2f2;stroke:#999;}#my-svg .relationshipLabelBox{fill:hsl(-160, 0%, 93.3333333333%);opacity:0.7;background-color:hsl(-160, 0%, 93.3333333333%);}#my-svg .relationshipLabelBox rect{opacity:0.5;}#my-svg .relationshipLine{stroke:#666;}#my-svg .entityTitleText{text-anchor:middle;font-size:18px;fill:#000000;}#my-svg #MD_PARENT_START{fill:#f5f5f5!important;stroke:#666!important;stroke-width:1;}#my-svg #MD_PARENT_END{fill:#f5f5f5!important;stroke:#666!important;stroke-width:1;}#my-svg :root{--mermaid-font-family:"trebuchet ms",verdana,arial,sans-serif;}</style><g/><defs><marker orient="auto" markerHeight="240" markerWidth="190" refY="7" refX="0" id="MD_PARENT_START"><path d="M 18,7 L9,13 L1,7 L9,1 Z"/></marker></defs><defs><marker orient="auto" markerHeight="28" markerWidth="20" refY="7" refX="19" id="MD_PARENT_END"><path d="M 18,7 L9,13 L1,7 L9,1 Z"/></marker></defs><defs><marker orient="auto" markerHeight="18" markerWidth="18" refY="9" refX="0" id="ONLY_ONE_START"><path d="M9,0 L9,18 M15,0 L15,18" fill="none" stroke="gray"/></marker></defs><defs><marker orient="auto" markerHeight="18" markerWidth="18" refY="9" refX="18" id="ONLY_ONE_END"><path d="M3,0 L3,18 M9,0 L9,18" fill="none" stroke="gray"/></marker></defs><defs><marker orient="auto" markerHeight="18" markerWidth="30" refY="9" refX="0" id="ZERO_OR_ONE_START"><circle r="6" cy="9" cx="21" fill="white" stroke="gray"/><path d="M9,0 L9,18" fill="none" stroke="gray"/></marker></defs><defs><marker orient="auto" markerHeight="18" markerWidth="30" refY="9" refX="30" id="ZERO_OR_ONE_END"><circle r="6" cy="9" cx="9" fill="white" stroke="gray"/><path d="M21,0 L21,18" fill="none" stroke="gray"/></marker></defs><defs><marker orient="auto" markerHeight="36" markerWidth="45" refY="18" refX="18" id="ONE_OR_MORE_START"><path d="M0,18 Q 18,0 36,18 Q 18,36 0,18 M42,9 L42,27" fill="none" stroke="gray"/></marker></defs><defs><marker orient="auto" markerHeight="36" markerWidth="45" refY="18" refX="27" id="ONE_OR_MORE_END"><path d="M3,9 L3,27 M9,18 Q27,0 45,18 Q27,36 9,18" fill="none" stroke="gray"/></marker></defs><defs><marker orient="auto" markerHeight="36" markerWidth="57" refY="18" refX="18" id="ZERO_OR_MORE_START"><circle r="6" cy="18" cx="48" fill="white" stroke="gray"/><path d="M0,18 Q18,0 36,18 Q18,36 0,18" fill="none" stroke="gray"/></marker></defs><defs><marker orient="auto" markerHeight="36" markerWidth="57" refY="18" refX="39" id="ZERO_OR_MORE_END"><circle r="6" cy="18" cx="9" fill="white" stroke="gray"/><path d="M21,18 Q39,0 57,18 Q39,36 21,18" fill="none" stroke="gray"/></marker></defs><path style="stroke: gray; fill: none;" marker-start="url(#ONLY_ONE_START)" marker-end="url(#ONE_OR_MORE_END)" d="M70.51910400390625,212L70.51910400390625,220.33333333333334C70.51910400390625,228.66666666666666,70.51910400390625,245.33333333333334,86.55845642089844,263.32584339139345C102.59780883789062,281.3183534494535,134.676513671875,300.63670689890705,150.7158660888672,310.2958836236338L166.75521850585938,319.9550603483606" class="er relationshipLine"/><path style="stroke: gray; fill: none;" marker-start="url(#ONLY_ONE_START)" marker-end="url(#ONE_OR_MORE_END)" d="M381.0382080078125,149L381.0382080078125,167.83333333333334C381.0382080078125,186.66666666666666,381.0382080078125,224.33333333333334,364.9988555908203,252.82584339139342C348.9595031738281,281.3183534494535,316.88079833984375,300.63670689890705,300.84144592285156,310.2958836236338L284.8020935058594,319.9550603483606" class="er relationshipLine"/><path style="stroke: gray; fill: none;" marker-start="url(#ZERO_OR_ONE_START)" marker-end="url(#ZERO_OR_MORE_END)" d="M121.0382080078125,75.75879488601402L132.70487467447916,66.46566240501168C144.37154134114584,57.172529924009346,167.70487467447916,38.58626496200467,182.2882080078125,29.293132481002335C196.87154134114584,20,202.70487467447916,20,208.5382080078125,36C214.37154134114584,52,220.20487467447916,84,220.20487467447916,116C220.20487467447916,148,214.37154134114584,180,208.5382080078125,196C202.70487467447916,212,196.87154134114584,212,182.2882080078125,202.70686751899765C167.70487467447916,193.41373503799534,144.37154134114584,174.82747007599065,132.70487467447916,165.53433759498833L121.0382080078125,156.24120511398598" class="er relationshipLine"/><g transform="translate(20,20 )" id="entity-bookmarks-a471242f-e415-597c-8f34-34dcad448225"><rect height="192" width="101.0382080078125" y="0" x="0" class="er entityBox"/><text style="dominant-baseline: middle; text-anchor: middle; font-size: 12px;" transform="translate(50.51910400390625,12)" y="0" x="0" id="text-entity-bookmarks-a471242f-e415-597c-8f34-34dcad448225" class="er entityLabel">bookmarks</text><rect height="21" width="41.7569580078125" y="24" x="0" class="er attributeBoxOdd"/><text style="dominant-baseline: middle; font-size: 10.2px;" transform="translate(5,34.5)" y="0" x="0" id="text-entity-bookmarks-a471242f-e415-597c-8f34-34dcad448225-attr-1-type" class="er entityLabel">text</text><rect height="21" width="59.28125" y="24" x="41.7569580078125" class="er attributeBoxOdd"/><text style="dominant-baseline: middle; font-size: 10.2px;" transform="translate(46.7569580078125,34.5)" y="0" x="0" id="text-entity-bookmarks-a471242f-e415-597c-8f34-34dcad448225-attr-1-name" class="er entityLabel">id</text><rect height="21" width="41.7569580078125" y="45" x="0" class="er attributeBoxEven"/><text style="dominant-baseline: middle; font-size: 10.2px;" transform="translate(5,55.5)" y="0" x="0" id="text-entity-bookmarks-a471242f-e415-597c-8f34-34dcad448225-attr-2-type" class="er entityLabel">text</text><rect height="21" width="59.28125" y="45" x="41.7569580078125" class="er attributeBoxEven"/><text style="dominant-baseline: middle; font-size: 10.2px;" transform="translate(46.7569580078125,55.5)" y="0" x="0" id="text-entity-bookmarks-a471242f-e415-597c-8f34-34dcad448225-attr-2-name" class="er entityLabel">parent_id</text><rect height="21" width="41.7569580078125" y="66" x="0" class="er attributeBoxOdd"/><text style="dominant-baseline: middle; font-size: 10.2px;" transform="translate(5,76.5)" y="0" x="0" id="text-entity-bookmarks-a471242f-e415-597c-8f34-34dcad448225-attr-3-type" class="er entityLabel">integer</text><rect height="21" width="59.28125" y="66" x="41.7569580078125" class="er attributeBoxOdd"/><text style="dominant-baseline: middle; font-size: 10.2px;" transform="translate(46.7569580078125,76.5)" y="0" x="0" id="text-entity-bookmarks-a471242f-e415-597c-8f34-34dcad448225-attr-3-name" class="er entityLabel">is_folder</text><rect height="21" width="41.7569580078125" y="87" x="0" class="er attributeBoxEven"/><text style="dominant-baseline: middle; font-size: 10.2px;" transform="translate(5,97.5)" y="0" x="0" id="text-entity-bookmarks-a471242f-e415-597c-8f34-34dcad448225-attr-4-type" class="er entityLabel">text</text><rect height="21" width="59.28125" y="87" x="41.7569580078125" class="er attributeBoxEven"/><text style="dominant-baseline: middle; font-size: 10.2px;" transform="translate(46.7569580078125,97.5)" y="0" x="0" id="text-entity-bookmarks-a471242f-e415-597c-8f34-34dcad448225-attr-4-name" class="er entityLabel">name</text><rect height="21" width="41.7569580078125" y="108" x="0" class="er attributeBoxOdd"/><text style="dominant-baseline: middle; font-size: 10.2px;" transform="translate(5,118.5)" y="0" x="0" id="text-entity-bookmarks-a471242f-e415-597c-8f34-34dcad448225-attr-5-type" class="er entityLabel">text</text><rect height="21" width="59.28125" y="108" x="41.7569580078125" class="er attributeBoxOdd"/><text style="dominant-baseline: middle; font-size: 10.2px;" transform="translate(46.7569580078125,118.5)" y="0" x="0" id="text-entity-bookmarks-a471242f-e415-597c-8f34-34dcad448225-attr-5-name" class="er entityLabel">url</text><rect height="21" width="41.7569580078125" y="129" x="0" class="er attributeBoxEven"/><text style="dominant-baseline: middle; font-size: 10.2px;" transform="translate(5,139.5)" y="0" x="0" id="text-entity-bookmarks-a471242f-e415-597c-8f34-34dcad448225-attr-6-type" class="er entityLabel">text</text><rect height="21" width="59.28125" y="129" x="41.7569580078125" class="er attributeBoxEven"/><text style="dominant-baseline: middle; font-size: 10.2px;" transform="translate(46.7569580078125,139.5)" y="0" x="0" id="text-entity-bookmarks-a471242f-e415-597c-8f34-34dcad448225-attr-6-name" class="er entityLabel">description</text><rect height="21" width="41.7569580078125" y="150" x="0" class="er attributeBoxOdd"/><text style="dominant-baseline: middle; font-size: 10.2px;" transform="translate(5,160.5)" y="0" x="0" id="text-entity-bookmarks-a471242f-e415-597c-8f34-34dcad448225-attr-7-type" class="er entityLabel">text</text><rect height="21" width="59.28125" y="150" x="41.7569580078125" class="er attributeBoxOdd"/><text style="dominant-baseline: middle; font-size: 10.2px;" transform="translate(46.7569580078125,160.5)" y="0" x="0" id="text-entity-bookmarks-a471242f-e415-597c-8f34-34dcad448225-attr-7-name" class="er entityLabel">modified</text><rect height="21" width="41.7569580078125" y="171" x="0" class="er attributeBoxEven"/><text style="dominant-baseline: middle; font-size: 10.2px;" transform="translate(5,181.5)" y="0" x="0" id="text-entity-bookmarks-a471242f-e415-597c-8f34-34dcad448225-attr-8-type" class="er entityLabel">text</text><rect height="21" width="59.28125" y="171" x="41.7569580078125" class="er attributeBoxEven"/><text style="dominant-baseline: middle; font-size: 10.2px;" transform="translate(46.7569580078125,181.5)" y="0" x="0" id="text-entity-bookmarks-a471242f-e415-597c-8f34-34dcad448225-attr-8-name" class="er entityLabel">order</text></g><g transform="translate(166.75521850585938,312 )" id="entity-bookmarkstags-7b98fde1-3821-5af2-a0f5-c51905de49e0"><rect height="87" width="118.046875" y="0" x="0" class="er entityBox"/><text style="dominant-baseline: middle; text-anchor: middle; font-size: 12px;" transform="translate(59.0234375,12)" y="0" x="0" id="text-entity-bookmarkstags-7b98fde1-3821-5af2-a0f5-c51905de49e0" class="er entityLabel">bookmarks_tags</text><rect height="21" width="37.989105224609375" y="24" x="0" class="er attributeBoxOdd"/><text style="dominant-baseline: middle; font-size: 10.2px;" transform="translate(5,34.5)" y="0" x="0" id="text-entity-bookmarkstags-7b98fde1-3821-5af2-a0f5-c51905de49e0-attr-1-type" class="er entityLabel">text</text><rect height="21" width="80.05776977539062" y="24" x="37.989105224609375" class="er attributeBoxOdd"/><text style="dominant-baseline: middle; font-size: 10.2px;" transform="translate(42.989105224609375,34.5)" y="0" x="0" id="text-entity-bookmarkstags-7b98fde1-3821-5af2-a0f5-c51905de49e0-attr-1-name" class="er entityLabel">bookmark_id</text><rect height="21" width="37.989105224609375" y="45" x="0" class="er attributeBoxEven"/><text style="dominant-baseline: middle; font-size: 10.2px;" transform="translate(5,55.5)" y="0" x="0" id="text-entity-bookmarkstags-7b98fde1-3821-5af2-a0f5-c51905de49e0-attr-2-type" class="er entityLabel">text</text><rect height="21" width="80.05776977539062" y="45" x="37.989105224609375" class="er attributeBoxEven"/><text style="dominant-baseline: middle; font-size: 10.2px;" transform="translate(42.989105224609375,55.5)" y="0" x="0" id="text-entity-bookmarkstags-7b98fde1-3821-5af2-a0f5-c51905de49e0-attr-2-name" class="er entityLabel">tag</text><rect height="21" width="37.989105224609375" y="66" x="0" class="er attributeBoxOdd"/><text style="dominant-baseline: middle; font-size: 10.2px;" transform="translate(5,76.5)" y="0" x="0" id="text-entity-bookmarkstags-7b98fde1-3821-5af2-a0f5-c51905de49e0-attr-3-type" class="er entityLabel">text</text><rect height="21" width="80.05776977539062" y="66" x="37.989105224609375" class="er attributeBoxOdd"/><text style="dominant-baseline: middle; font-size: 10.2px;" transform="translate(42.989105224609375,76.5)" y="0" x="0" id="text-entity-bookmarkstags-7b98fde1-3821-5af2-a0f5-c51905de49e0-attr-3-name" class="er entityLabel">modified</text></g><g transform="translate(331.0382080078125,83 )" id="entity-tags-6d8c4510-222a-5f9e-b73d-d896901739b8"><rect height="66" width="100" y="0" x="0" class="er entityBox"/><text style="dominant-baseline: middle; text-anchor: middle; font-size: 12px;" transform="translate(50,12)" y="0" x="0" id="text-entity-tags-6d8c4510-222a-5f9e-b73d-d896901739b8" class="er entityLabel">tags</text><rect height="21" width="38.874603271484375" y="24" x="0" class="er attributeBoxOdd"/><text style="dominant-baseline: middle; font-size: 10.2px;" transform="translate(5,34.5)" y="0" x="0" id="text-entity-tags-6d8c4510-222a-5f9e-b73d-d896901739b8-attr-1-type" class="er entityLabel">text</text><rect height="21" width="61.125396728515625" y="24" x="38.874603271484375" class="er attributeBoxOdd"/><text style="dominant-baseline: middle; font-size: 10.2px;" transform="translate(43.874603271484375,34.5)" y="0" x="0" id="text-entity-tags-6d8c4510-222a-5f9e-b73d-d896901739b8-attr-1-name" class="er entityLabel">tag</text><rect height="21" width="38.874603271484375" y="45" x="0" class="er attributeBoxEven"/><text style="dominant-baseline: middle; font-size: 10.2px;" transform="translate(5,55.5)" y="0" x="0" id="text-entity-tags-6d8c4510-222a-5f9e-b73d-d896901739b8-attr-2-type" class="er entityLabel">text</text><rect height="21" width="61.125396728515625" y="45" x="38.874603271484375" class="er attributeBoxEven"/><text style="dominant-baseline: middle; font-size: 10.2px;" transform="translate(43.874603271484375,55.5)" y="0" x="0" id="text-entity-tags-6d8c4510-222a-5f9e-b73d-d896901739b8-attr-2-name" class="er entityLabel">modified</text></g><rect height="0" width="0" y="277.9225769042969" x="102.36355590820312" class="er relationshipLabelBox"/><text style="text-anchor: middle; dominant-baseline: middle; font-size: 12px;" y="277.9225769042969" x="102.36355590820312" id="rel1" class="er relationshipLabel"/><rect height="0" width="0" y="252.62596130371094" x="365.1108093261719" class="er relationshipLabelBox"/><text style="text-anchor: middle; dominant-baseline: middle; font-size: 12px;" y="252.62596130371094" x="365.1108093261719" id="rel2" class="er relationshipLabel"/><rect height="0" width="0" y="116" x="220.2048797607422" class="er relationshipLabelBox"/><text style="text-anchor: middle; dominant-baseline: middle; font-size: 12px;" y="116" x="220.2048797607422" id="rel3" class="er relationshipLabel"/></svg>